#!OML:ASF F:\VICON\USERDATA\INSTALL\rory3\rory3.ASF
:FULLY-SPECIFIED
:DEGREES
4752
root -5.08321 15.2488 0.811721 2.22771 -16.287 -724.138
lowerback 47.353 4.24115 0.903018
upperback 10.2184 5.96542 5.59098
thorax -10.5456 2.39192 2.89033
lowerneck -11.597 -1.20108 -2.91826
upperneck 2.71644 -1.06597 -2.10061
head 2.91216 -0.657472 -0.237141
rclavicle -1.90833e-014 7.63333e-014
rhumerus 13.6953 1.69997 -79.469
rradius 35.4966
rwrist 1.45926
rhand -6.94753 2.88726
rfingers 7.12502
rthumb 18.9213 -26.2124
lclavicle -1.90833e-014 7.63333e-014
lhumerus -7.47997 -1.85632 87.821
lradius 62.747
lwrist 15.3717
lhand 158.729 -129.979
lfingers 7.12502
lthumb -174.887 3499.94
rfemur -19.6796 -6.94039 13.7087
rtibia 81.2048
rfoot -16.3951 -0.326212
rtoes -25.0419
lfemur -50.7679 -1.70177 2.54285
ltibia 63.4435
lfoot -7.83727 5.3947
ltoes -34.9735
4753
root -5.0878 15.1611 0.992223 1.99198 -15.4505 -723.467
lowerback 48.8714 4.37081 -0.0333949
upperback 8.88682 5.72346 5.38912
thorax -11.0469 2.26948 3.35708
lowerneck -11.4911 -1.23034 -3.35656
upperneck 2.60461 -1.09357 -1.33734
head 2.86225 -0.643659 0.0877935
rclavicle 1.98785e-014 -3.89618e-014
rhumerus 13.2825 1.88453 -79.5938
rradius 35.0311
rwrist 0.458751
rhand -8.60577 4.18627
rfingers 7.12502
rthumb 17.3259 -25.0615
lclavicle 1.98785e-014 -3.89618e-014
lhumerus -6.22591 -2.76328 88.3741
lradius 62.6065
lwrist 13.3995
lhand 157.922 -131.603
lfingers 7.12502
lthumb -175.667 3498.33
rfemur -21.108 -6.62939 12.295
rtibia 84.0951
rfoot -12.7701 2.40616
rtoes -21.492
lfemur -51.4163 -1.51871 1.56123
ltibia 64.833
lfoot -8.91639 4.07349
ltoes -35.1915
4754
root -5.10982 15.0797 1.16301 1.89859 -14.5455 -723.144
lowerback 49.2364 4.60133 -0.596143
upperback 8.85665 5.71352 5.25186
thorax -11.1562 2.27661 3.47098
lowerneck -11.9302 -1.41831 -3.15927
upperneck 2.38899 -1.39152 -0.785755
head 2.87776 -0.76623 0.213096
rclavicle 7.95139e-016 -3.89618e-014
rhumerus 12.6649 0.82963 -79.9333
rradius 35.7905
rwrist 0.833247
rhand -10.6882 4.843
rfingers 7.12502
rthumb 15.3208 -24.5695
lclavicle 7.95139e-016 -3.89618e-014
lhumerus -4.37002 -4.75002 88.7699
lradius 62.1954
lwrist 12.3049
lhand 156.321 -132.92
lfingers 7.12502
lthumb -177.213 3497.04
rfemur -22.6943 -6.2435 11.385
rtibia 86.8491
rfoot -7.90742 4.65654
rtoes -14.4605
lfemur -52.2379 -1.09511 0.922152
ltibia 66.2802
lfoot -9.92829 2.56451
ltoes -33.703
4755
root -5.15069 15.0155 1.33695 1.75515 -13.5351 -723.067
lowerback 50.0054 4.92968 -0.558725
upperback 8.68021 6.08811 4.92528
thorax -11.4475 2.44475 2.91207
lowerneck -12.4734 -1.86019 -1.96407
upperneck 2.27801 -2.16118 -0.530653
head 2.93848 -1.12549 0.0341176
rclavicle -2.06736e-014 -1.35174e-014
rhumerus 11.6543 -1.71412 -80.4046
rradius 37.3964
rwrist 2.65252
rhand -13.0002 3.50285
rfingers 7.12502
rthumb 13.093 -26.0662
lclavicle -2.06736e-014 -1.35174e-014
lhumerus -2.59161 -8.26143 88.8727
lradius 61.82
lwrist 12.8734
lhand 154.334 -131.877
lfingers 7.12502
lthumb -179.132 3498.1
rfemur -24.156 -5.93986 10.9053
rtibia 89.2881
rfoot -5.2283 7.02208
rtoes -13.7905
lfemur -52.7005 -0.527745 0.511267
ltibia 67.3804
lfoot -10.777 0.990761
ltoes -32.2144
4756
root -5.19061 14.9673 1.5151 1.70581 -12.262 -723.297
lowerback 50.5046 4.67372 -0.613008
upperback 8.59172 5.77467 4.93143
thorax -11.6047 2.30641 3.08215
lowerneck -12.1336 -1.99374 -2.36196
upperneck 1.75663 -2.34001 0.313546
head 2.71548 -1.18208 0.372987
rclavicle 3.97569e-015 -2.46493e-014
rhumerus 10.7793 -2.27334 -80.6701
rradius 39.5191
rwrist 4.84407
rhand -15.7619 1.73029
rfingers 7.12502
rthumb 10.4298 -27.991
lclavicle 3.97569e-015 -2.46493e-014
lhumerus -1.07951 -8.6112 88.8521
lradius 62.6206
lwrist 7.21777
lhand 163.93 -123.434
lfingers 7.12502
lthumb -169.867 3506.3
rfemur -25.7987 -6.17826 10.8341
rtibia 91.6489
rfoot -2.97318 8.84871
rtoes -11.3919
lfemur -53.1651 -0.131497 0.398391
ltibia 68.4198
lfoot -11.6452 -0.49821
ltoes -31.7856
4757
root -5.2416 15.0582 1.69532 1.81487 -11.1831 -723.385
lowerback 50.6974 4.36769 -0.748598
upperback 8.6796 5.32124 4.77033
thorax -11.4875 2.11521 3.17942
lowerneck -12.2068 -2.11158 -2.66393
upperneck 1.32315 -2.49467 1.13204
head 2.60344 -1.22927 0.683037
rclavicle 1.98785e-014 3.89618e-014
rhumerus 10.0437 -2.52117 -81.0742
rradius 41.5729
rwrist 5.3666
rhand -17.4888 3.25117
rfingers 7.12502
rthumb 8.76369 -26.5469
lclavicle 1.98785e-014 3.89618e-014
lhumerus 0.528553 -10.3413 88.4592
lradius 62.3443
lwrist 8.68186
lhand 162.1 -129.055
lfingers 7.12502
lthumb -171.633 3500.76
rfemur -27.427 -6.31686 10.9858
rtibia 93.211
rfoot -0.365613 9.43098
rtoes -8.30296
lfemur -52.8372 0.295877 0.034866
ltibia 68.566
lfoot -12.4985 -1.72982
ltoes -31.5495
4758
root -5.27555 14.9304 1.86227 1.92565 -10.2015 -723.266
lowerback 50.9741 4.13104 -1.08767
upperback 8.68635 4.84614 4.58414
thorax -11.4805 1.91807 3.35082
lowerneck -12.4496 -2.17498 -2.87551
upperneck 1.0042 -2.57143 1.75396
head 2.55808 -1.24486 0.916933
rclavicle -2.62396e-014 7.95139e-016
rhumerus 9.11071 -2.34374 -81.3755
rradius 43.8214
rwrist 5.02748
rhand -18.1075 3.99599
rfingers 7.12502
rthumb 8.16654 -25.8262
lclavicle -2.62396e-014 7.95139e-016
lhumerus 1.81449 -11.6126 88.0565
lradius 62.8231
lwrist 9.31177
lhand 161.127 -128.914
lfingers 7.12502
lthumb -172.572 3500.94
rfemur -29.8855 -6.62977 10.53
rtibia 95.938
rfoot -1.16444 7.9497
rtoes -14.8955
lfemur -53.6507 0.641477 -0.27175
ltibia 69.5562
lfoot -13.0218 -2.72312
ltoes -32.0449
4759
root -5.32786 14.9689 2.03193 2.09778 -9.21967 -723.106
lowerback 51.2132 3.84404 -1.31687
upperback 8.61518 4.36351 4.33514
thorax -11.5428 1.7208 3.40411
lowerneck -12.4473 -2.24669 -3.036
upperneck 0.740808 -2.67255 2.40507
head 2.48816 -1.27271 1.15187
rclavicle 0 6.75868e-015
rhumerus 8.06276 -2.37071 -81.672
rradius 45.8629
rwrist 4.52059
rhand -18.8401 3.87827
rfingers 7.12502
rthumb 7.45953 -25.9702
lclavicle 0 6.75868e-015
lhumerus 2.75391 -12.5529 87.7022
lradius 64.3003
lwrist 9.57312
lhand 161.184 -128.833
lfingers 7.12502
lthumb -172.517 3501.02
rfemur -31.8896 -7.11812 10.4142
rtibia 97.5888
rfoot -0.84876 5.32715
rtoes -12.3521
lfemur -53.5525 1.32851 -0.851783
ltibia 69.7408
lfoot -13.8226 -3.96018
ltoes -32.7114
4760
root -5.3762 14.9391 2.19729 2.30838 -8.00982 -722.821
lowerback 51.5986 3.45499 -1.3563
upperback 8.33359 3.86928 4.06574
thorax -11.8562 1.52215 3.34855
lowerneck -12.0646 -2.24613 -2.92254
upperneck 0.419872 -2.70671 2.67518
head 2.31363 -1.28218 1.21955
rclavicle -1.59028e-014 9.93923e-015
rhumerus 5.99884 -2.53014 -81.631
rradius 48.5358
rwrist 3.61599
rhand -19.6111 3.43967
rfingers 7.12502
rthumb 6.7153 -26.4338
lclavicle -1.59028e-014 9.93923e-015
lhumerus 3.30726 -13.8143 87.5068
lradius 65.1221
lwrist 7.78981
lhand 161.322 -125.768
lfingers 7.12502
lthumb -172.384 3504.07
rfemur -34.0928 -8.35449 9.93484
rtibia 99.4025
rfoot -2.56318 3.08721
rtoes -11.3212
lfemur -54.0032 1.53294 -1.38371
ltibia 70.3667
lfoot -14.8088 -4.92848
ltoes -33.6542
4761
root -5.4272 14.9025 2.35809 2.7086 -7.33788 -722.57
lowerback 51.7019 3.36777 -1.59054
upperback 8.09393 3.63463 3.87504
thorax -12.1199 1.43846 3.35219
lowerneck -11.6937 -2.21354 -2.81098
upperneck 0.0248515 -2.68009 2.60462
head 2.10822 -1.27348 1.1798
rclavicle 3.18055e-015 1.98785e-015
rhumerus 4.193 -2.60383 -81.4727
rradius 50.8267
rwrist 2.90706
rhand -20.2245 3.33168
rfingers 7.12502
rthumb 6.12312 -26.5598
lclavicle 3.18055e-015 1.98785e-015
lhumerus 3.43664 -14.8304 87.6428
lradius 66.4618
lwrist 6.0416
lhand 162.36 -123.213
lfingers 7.12502
lthumb -171.382 3506.59
rfemur -36.6699 -9.08879 9.50848
rtibia 100.867
rfoot -3.99007 0.677237
rtoes -8.34433
lfemur -54.4796 1.99058 -1.76338
ltibia 70.857
lfoot -15.6146 -5.8124
ltoes -33.4533
4762
root -5.48274 14.8811 2.51656 3.16875 -6.54336 -722.827
lowerback 51.8858 3.07145 -1.3277
upperback 7.93695 3.42402 3.78904
thorax -12.2941 1.34915 3.23115
lowerneck -11.5404 -2.14965 -2.75125
upperneck -0.537987 -2.6015 2.66634
head 1.89053 -1.23397 1.19383
rclavicle 5.1684e-015 -1.51076e-014
rhumerus 2.41285 -2.55746 -81.171
rradius 53.2496
rwrist 2.26053
rhand -20.4907 3.39293
rfingers 7.12502
rthumb 5.86608 -26.5059
lclavicle 5.1684e-015 -1.51076e-014
lhumerus 3.34932 -15.4469 87.8038
lradius 68.2051
lwrist 4.08102
lhand 162.469 -123.566
lfingers 7.12502
lthumb -171.277 3506.23
rfemur -39.0883 -9.78459 9.78791
rtibia 101.869
rfoot -4.9897 -1.94017
rtoes -2.57807
lfemur -55.0215 2.36156 -1.54304
ltibia 71.3581
lfoot -16.3761 -6.75527
ltoes -32.7589
4763
root -5.54248 14.875 2.66986 3.76476 -5.90963 -722.98
lowerback 51.9946 2.84554 -1.32887
upperback 7.80493 3.14297 3.63452
thorax -12.4293 1.23573 3.19075
lowerneck -11.6549 -2.12765 -2.7134
upperneck -0.985093 -2.58256 3.13319
head 1.77178 -1.21178 1.33831
rclavicle -8.74653e-015 -2.38542e-014
rhumerus 0.617372 -2.18623 -80.9655
rradius 55.8473
rwrist 1.35211
rhand -20.584 3.6302
rfingers 7.12502
rthumb 5.77603 -26.2711
lclavicle -8.74653e-015 -2.38542e-014
lhumerus 3.09042 -15.6803 87.7528
lradius 70.1847
lwrist 2.75789
lhand 162.414 -124.196
lfingers 7.12502
lthumb -171.33 3505.61
rfemur -41.7282 -10.3481 10.0452
rtibia 102.368
rfoot -8.46628 -3.64507
rtoes -6.92424
lfemur -55.4997 2.81239 -1.43171
ltibia 71.7162
lfoot -17.0112 -7.42796
ltoes -33.4856
4764
root -5.59805 14.8761 2.82373 4.24048 -4.74316 -722.942
lowerback 52.4534 2.24404 -1.11635
upperback 7.48891 2.56282 3.56989
thorax -12.8057 0.99175 3.29179
lowerneck -11.7935 -2.12087 -3.06878
upperneck -1.03196 -2.53535 3.59613
head 1.79725 -1.17412 1.55399
rclavicle -9.54166e-015 1.70955e-014
rhumerus -1.26022 -1.53816 -80.5785
rradius 58.268
rwrist 0.307732
rhand -20.7902 3.6988
rfingers 7.12502
rthumb 5.57688 -26.2078
lclavicle -9.54166e-015 1.70955e-014
lhumerus 2.41157 -15.5253 88.0542
lradius 72.2957
lwrist 2.19637
lhand 162.065 -123.628
lfingers 7.12502
lthumb -171.667 3506.19
rfemur -44.0046 -11.4731 10.1261
rtibia 102.334
rfoot -9.58344 -5.43331
rtoes 0.549591
lfemur -55.975 2.53857 -1.47833
ltibia 71.9132
lfoot -17.6358 -7.66436
ltoes -35.3759
4765
root -5.65603 14.91 2.99931 4.62123 -4.77783 -722.79
lowerback 52.9383 2.37296 -1.49129
upperback 7.22377 2.48497 3.40739
thorax -13.1643 0.972749 3.32132
lowerneck -12.1397 -2.06814 -3.08672
upperneck -0.987369 -2.46018 3.7728
head 1.87591 -1.12819 1.61846
rclavicle 2.26615e-014 1.27222e-014
rhumerus -2.99741 -1.29975 -80.1842
rradius 60.2527
rwrist 0.000565358
rhand -20.7977 5.74862
rfingers 7.12502
rthumb 5.56964 -24.1582
lclavicle 2.26615e-014 1.27222e-014
lhumerus 1.43111 -15.2372 88.4722
lradius 74.653
lwrist 1.40959
lhand 161.479 -122.571
lfingers 7.12502
lthumb -172.232 3507.27
rfemur -46.4974 -11.2276 10.1568
rtibia 101.708
rfoot -11.9744 -7.10045
rtoes -1.78392
lfemur -55.6072 3.05448 -1.6222
ltibia 71.9389
lfoot -18.3487 -7.90726
ltoes -34.5407
